<!--?xml version="1.0" encoding="utf-8"?-->
<!-- Generator: Adobe Illustrator 18.1.1, SVG Export Plug-In . SVG Version: 6.00 Build 0)  -->

<svg version="1.1" id="_x32_" xmlns="http://www.w3.org/2000/svg" xmlns:xlink="http://www.w3.org/1999/xlink" x="0px" y="0px" viewBox="0 0 512 512" style="width: 64px; height: 64px; opacity: 1;" xml:space="preserve">
<style type="text/css">
	.st0{fill:#4B4B4B;}
</style>
<g>
	<path class="st0" d="M453.822,30.503h-338.09c-32.122,0-58.254,26.131-58.254,58.178c0,16.343,6.624,31.345,17.89,42.049
		l2.47,29.371l1.197,15.077l-0.846-0.99c-22.678,20.146-41.766,42.123-55.578,63.887c-6.83,10.916-12.395,21.763-16.336,32.542
		c-3.948,10.779-6.274,21.412-6.274,32.047c-0.068,11.343,2.889,22.96,9.864,32.611c6.906,9.719,17.396,16.694,29.654,20.636
		c4.718,1.554,9.506,2.118,14.156,2.118c11.762-0.076,23.249-3.453,35.5-8.454c21.412-8.873,45.295-23.6,70.016-41.209
		c7.608-5.489,16.199-12.044,25.286-19.226v13.241c0,25.285,20.497,45.783,45.783,45.783H387.54
		c25.286,0,45.783-20.498,45.783-45.783V126.995h30.85L442.06,394.16c-2.607,31.064-28.532,54.938-59.733,54.938h-192.92
		c-31.133,0-57.126-23.875-59.658-54.938l-2.751-32.968l-1.197-14.293c-11.198,6.479-21.481,11.693-31.201,15.704l0.138,1.272
		l2.676,32.962c3.949,47.476,44.38,84.66,91.993,84.66h192.92c47.688,0,88.114-37.185,91.993-84.66l22.251-268.714
		C506.366,117.557,512,103.614,512,88.681C512,56.634,485.938,30.503,453.822,30.503z M184.475,244.059
		c-8.667,7.257-16.907,13.95-24.157,19.583c-22.404,17.258-44.586,32.542-63.819,43.176c-9.574,5.351-18.379,9.512-25.849,12.188
		c-7.394,2.745-13.523,3.872-16.976,3.804c-1.686,0-2.745-0.213-3.165-0.358c-6.837-2.318-10.076-5.001-12.051-7.745
		c-1.967-2.82-3.24-6.342-3.24-12.044c-0.068-5.214,1.204-12.113,4.162-19.934c4.224-11.831,12.044-25.705,22.747-39.867
		c5.99-7.958,12.89-16.054,20.498-24.02l1.616,19.088l4.794,56.913l0.633-0.351c9.155-5.07,19.3-11.412,30.217-18.875l-5.709-68.957
		l-1.197-14.3l-5.421-65.366h76.916V244.059z M184.475,110.094h-83.112c-6.906-4.65-11.48-12.471-11.48-21.413
		c0-14.232,11.549-25.78,25.849-25.78h68.744V110.094z M412.193,110.094v16.9v175.387c0,6.83-2.744,12.89-7.188,17.396
		c-4.505,4.512-10.566,7.257-17.465,7.257H230.258c-6.831,0-12.959-2.745-17.396-7.257c-4.512-4.506-7.256-10.565-7.256-17.396
		v-30.568v-45.996v-98.823v-16.9V62.901h206.587V110.094z M468.046,110.094h-34.722V62.901h20.498
		c14.224,0,25.781,11.548,25.781,25.78C479.602,97.623,474.952,105.444,468.046,110.094z" style="fill: rgb(255, 255, 255);"></path>
	<path class="st0" d="M380.525,187.676c3.893,0,7.044-3.151,7.044-7.044v-25.148c0-3.893-3.151-7.044-7.044-7.044
		c-3.894,0-7.044,3.15-7.044,7.044v25.148C373.482,184.525,376.632,187.676,380.525,187.676z" style="fill: rgb(255, 255, 255);"></path>
	<path class="st0" d="M380.525,250.545c3.893,0,7.044-3.151,7.044-7.044v-25.148c0-3.887-3.151-7.044-7.044-7.044
		c-3.894,0-7.044,3.157-7.044,7.044v25.148C373.482,247.395,376.632,250.545,380.525,250.545z" style="fill: rgb(255, 255, 255);"></path>
	<path class="st0" d="M380.525,124.807c3.893,0,7.044-3.15,7.044-7.044V92.616c0-3.893-3.151-7.044-7.044-7.044
		c-3.894,0-7.044,3.15-7.044,7.044v25.147C373.482,121.657,376.632,124.807,380.525,124.807z" style="fill: rgb(255, 255, 255);"></path>
	<path class="st0" d="M366.438,302.361h14.088c1.857,0,3.666-0.75,4.98-2.063c1.314-1.314,2.064-3.13,2.064-4.98V281.23
		c0-3.893-3.151-7.044-7.044-7.044c-3.894,0-7.044,3.151-7.044,7.044v7.044h-7.044c-3.893,0-7.044,3.15-7.044,7.044
		C359.394,299.203,362.544,302.361,366.438,302.361z" style="fill: rgb(255, 255, 255);"></path>
	<path class="st0" d="M294.537,302.361h28.759c3.893,0,7.044-3.157,7.044-7.044c0-3.893-3.15-7.044-7.044-7.044h-28.759
		c-3.893,0-7.044,3.15-7.044,7.044C287.494,299.203,290.644,302.361,294.537,302.361z" style="fill: rgb(255, 255, 255);"></path>
	<path class="st0" d="M237.308,302.361h14.087c3.886,0,7.044-3.157,7.044-7.044c0-3.893-3.158-7.044-7.044-7.044h-7.044v-7.044
		c0-3.893-3.157-7.044-7.044-7.044c-3.893,0-7.044,3.151-7.044,7.044v14.087c0,1.85,0.75,3.666,2.064,4.98
		C233.642,301.611,235.451,302.361,237.308,302.361z" style="fill: rgb(255, 255, 255);"></path>
	<path class="st0" d="M237.308,250.552c3.886,0,7.044-3.158,7.044-7.044v-25.147c0-3.894-3.157-7.044-7.044-7.044
		c-3.893,0-7.044,3.15-7.044,7.044v25.147C230.265,247.395,233.415,250.552,237.308,250.552z" style="fill: rgb(255, 255, 255);"></path>
	<path class="st0" d="M237.308,187.676c3.886,0,7.044-3.151,7.044-7.044v-25.148c0-3.887-3.157-7.044-7.044-7.044
		c-3.893,0-7.044,3.157-7.044,7.044v25.148C230.265,184.525,233.415,187.676,237.308,187.676z" style="fill: rgb(255, 255, 255);"></path>
	<path class="st0" d="M237.308,124.807c3.886,0,7.044-3.15,7.044-7.044V92.616c0-3.893-3.157-7.044-7.044-7.044
		c-3.893,0-7.044,3.15-7.044,7.044v25.147C230.265,121.657,233.415,124.807,237.308,124.807z" style="fill: rgb(255, 255, 255);"></path>
</g>
</svg>
