<?xml version="1.0" encoding="utf-8"?>
<!-- Generator: Adobe Illustrator 21.1.0, SVG Export Plug-In . SVG Version: 6.00 Build 0)  -->
<svg version="1.1" id="_x32_" xmlns="http://www.w3.org/2000/svg" xmlns:xlink="http://www.w3.org/1999/xlink" x="0px" y="0px"
	 viewBox="0 0 512 512" style="enable-background:new 0 0 512 512;" xml:space="preserve">
<style type="text/css">
	.st0{fill:#FFFFFF;}
</style>
<g>
	<path class="st0" d="M410,0H146.8c-25,0-45.3,20.3-45.3,45.3c0,12.7,5.2,24.4,13.9,32.7l1.9,22.9l0.9,11.7l-0.7-0.8
		c-17.6,15.7-32.5,32.8-43.3,49.7c-5.3,8.5-9.6,16.9-12.7,25.3c-3.1,8.4-4.9,16.7-4.9,24.9c-0.1,8.8,2.2,17.9,7.7,25.4
		c5.4,7.6,13.5,13,23.1,16.1c3.7,1.2,7.4,1.6,11,1.6c9.2-0.1,18.1-2.7,27.6-6.6c16.7-6.9,35.3-18.4,54.5-32.1
		c5.9-4.3,12.6-9.4,19.7-15v10.3c0,19.7,16,35.6,35.6,35.6h122.4c19.7,0,35.6-16,35.6-35.6V75.1h24L400.8,283
		c-2,24.2-22.2,42.8-46.5,42.8H204.2c-24.2,0-44.5-18.6-46.4-42.8l-2.1-25.7l-0.9-11.1c-8.7,5-16.7,9.1-24.3,12.2l0.1,1l2.1,25.7
		c3.1,36.9,34.5,65.9,71.6,65.9h150.1c37.1,0,68.6-28.9,71.6-65.9L443.2,76c7.6-8.2,12-19.1,12-30.7C455.2,20.3,435,0,410,0z
		 M200.3,166.2c-6.7,5.6-13.2,10.9-18.8,15.2c-17.4,13.4-34.7,25.3-49.7,33.6c-7.5,4.2-14.3,7.4-20.1,9.5c-5.8,2.1-10.5,3-13.2,3
		c-1.3,0-2.1-0.2-2.5-0.3c-5.3-1.8-7.8-3.9-9.4-6c-1.5-2.2-2.5-4.9-2.5-9.4c-0.1-4.1,0.9-9.4,3.2-15.5c3.3-9.2,9.4-20,17.7-31
		c4.7-6.2,10-12.5,16-18.7l1.3,14.9l3.7,44.3l0.5-0.3c7.1-3.9,15-8.9,23.5-14.7l-4.4-53.7l-0.9-11.1l-4.2-50.9h59.9L200.3,166.2
		L200.3,166.2z M200.3,61.9h-64.7c-5.4-3.6-8.9-9.7-8.9-16.7c0-11.1,9-20.1,20.1-20.1h53.5L200.3,61.9L200.3,61.9z M377.6,61.9v13.2
		v136.5c0,5.3-2.1,10-5.6,13.5c-3.5,3.5-8.2,5.6-13.6,5.6H236c-5.3,0-10.1-2.1-13.5-5.6c-3.5-3.5-5.6-8.2-5.6-13.5v-23.8V152V75.1
		V61.9V25.2h160.8V61.9z M421,61.9h-27V25.2h16c11.1,0,20.1,9,20.1,20.1C430,52.2,426.4,58.3,421,61.9z"/>
	<path class="st0" d="M352.9,122.3c3,0,5.5-2.5,5.5-5.5V97.3c0-3-2.5-5.5-5.5-5.5c-3,0-5.5,2.5-5.5,5.5v19.6
		C347.4,119.9,349.9,122.3,352.9,122.3z"/>
	<path class="st0" d="M352.9,171.3c3,0,5.5-2.5,5.5-5.5v-19.6c0-3-2.5-5.5-5.5-5.5c-3,0-5.5,2.5-5.5,5.5v19.6
		C347.4,168.8,349.9,171.3,352.9,171.3z"/>
	<path class="st0" d="M352.9,73.4c3,0,5.5-2.5,5.5-5.5V48.3c0-3-2.5-5.5-5.5-5.5c-3,0-5.5,2.5-5.5,5.5v19.6
		C347.4,70.9,349.9,73.4,352.9,73.4z"/>
	<path class="st0" d="M342,211.6h11c1.4,0,2.9-0.6,3.9-1.6c1-1,1.6-2.4,1.6-3.9v-11c0-3-2.5-5.5-5.5-5.5c-3,0-5.5,2.5-5.5,5.5v5.5
		H342c-3,0-5.5,2.5-5.5,5.5C336.5,209.1,338.9,211.6,342,211.6z"/>
	<path class="st0" d="M286,211.6h22.4c3,0,5.5-2.5,5.5-5.5c0-3-2.5-5.5-5.5-5.5H286c-3,0-5.5,2.5-5.5,5.5
		C280.5,209.1,283,211.6,286,211.6z"/>
	<path class="st0" d="M241.5,211.6h11c3,0,5.5-2.5,5.5-5.5c0-3-2.5-5.5-5.5-5.5h-5.5v-5.5c0-3-2.5-5.5-5.5-5.5c-3,0-5.5,2.5-5.5,5.5
		v11c0,1.4,0.6,2.9,1.6,3.9C238.6,211,240,211.6,241.5,211.6z"/>
	<path class="st0" d="M241.5,171.3c3,0,5.5-2.5,5.5-5.5v-19.6c0-3-2.5-5.5-5.5-5.5c-3,0-5.5,2.5-5.5,5.5v19.6
		C236,168.8,238.4,171.3,241.5,171.3z"/>
	<path class="st0" d="M241.5,122.3c3,0,5.5-2.5,5.5-5.5V97.3c0-3-2.5-5.5-5.5-5.5c-3,0-5.5,2.5-5.5,5.5v19.6
		C236,119.9,238.4,122.3,241.5,122.3z"/>
	<path class="st0" d="M241.5,73.4c3,0,5.5-2.5,5.5-5.5V48.3c0-3-2.5-5.5-5.5-5.5c-3,0-5.5,2.5-5.5,5.5v19.6
		C236,70.9,238.4,73.4,241.5,73.4z"/>
</g>
<g>
	<path class="st0" d="M188,472.6c-2.4,0-4.9,0.1-7.2,0.1c-2.8,0-4,1.5-4,4.3c0,1.6,0,3.3,0,5c0,4.1,0,8.5,0.1,12.9v0.1
		c0,3.2-2.6,4.9-5.2,4.9c-2.6,0-5.2-1.7-5.4-5c0-3.2-0.1-6.5-0.1-9.9s0.1-6.8,0.1-10c0-1.3,0.2-2.4,0.5-3.5c-0.9,0.5-2,0.7-2.9,0.7
		c-2.7,0-5.2-1.7-5.4-5c0-1.6-0.1-3.3-0.1-5c0-1.8,0.1-3.8,0.1-5.7c0-1.6,0.4-3,1-4.4c-2.6,1.7-5.2,3.4-8.2,5.2
		c0,8.7-0.1,15.6-0.1,17.6c0,2,0.4,13.1,0.5,17.3c0,0.1,0,0.4,0,0.5c0,7.7-5,13.7-15.6,13.7c-6.5,0-11-1.1-11-6.6
		c0-2.8,1.7-5.6,4.8-5.6c0.4,0,0.7,0,1.1,0.1c1.1,0.2,2.6,0.5,3.9,0.5c2.6,0,5-0.9,5-4v-27c-7.3,3.8-9.3,4.4-10.5,4.4
		c-3.4,0-5.6-3-5.6-6c0-2.1,1-4,3.3-5c4.5-1.8,8.8-3.8,12.8-5.7V434h-10c-3.7,0-5.5-2.7-5.5-5.4s1.8-5.4,5.5-5.4h10l-0.1-18.4
		c0-3.8,2.9-5.7,5.9-5.7s5.7,1.8,5.7,5.7v18.4h7.8c3.7,0,5.4,2.7,5.4,5.4s-1.7,5.4-5.4,5.4h-7.8v11.6c1.5-0.9,2.8-1.8,4.1-2.7
		c0.7-0.5,1.6-0.7,2.3-0.7c2.4,0,4.6,2.6,4.6,5.4c0,0.4-0.1,0.9-0.2,1.3c2.1-1.6,5.1-2.7,9.1-2.7c7.1-0.1,17.1-0.1,26.7-0.1
		c7.1,0,13.9,0,19.4,0.1c6,0.1,12.2,3.8,12.4,11.2c0.1,1.6,0.1,3.3,0.1,4.9c0,1.7,0,3.3-0.1,4.8c-0.1,3.3-3,4.9-5.7,4.9
		c-1.1,0-2.2-0.2-3-0.7c0.4,1.2,0.5,2.6,0.5,4c0,3.4,0,6.8,0.1,10.7c0,0.2,0,0.4,0,0.6c0,6.7-3.5,12.1-12.1,12.1
		c-5,0-7.8-1.2-7.8-5.2c0-2.2,1.2-4.5,3.5-4.5c0.2,0,0.5,0.1,0.7,0.1c0.6,0.1,1.1,0.1,1.7,0.1c1.8,0,3.5-0.6,3.5-3.7
		c0,0,0-5.2-0.1-8.5c0-4.3-2.6-4.3-12.2-4.3l0.1,28.9c0,3.8-2.8,5.6-5.5,5.6c-2.8,0-5.6-1.8-5.6-5.6V472.6z M174.7,425.8
		c-3,0-4.6-2.1-4.6-4.3c0-2.1,1.6-4.1,4.6-4.1H209c0-1-0.1-1.8-0.1-2.4c-0.2-2.4-1.7-3.3-4.1-3.3c0,0,0,0-33.1,0
		c-3.4,0-5.1-2.3-5.1-4.6c0-2.3,1.7-4.6,5.2-4.6c10.4,0.1,26.4,0.1,35.6,0.1c12.3,0,12.6,7.4,12.6,19.3c0,12.3-0.2,18.7-12.6,18.9
		c-6.8,0.1-15,0.2-22.7,0.2c-4.9,0-9.5,0-13.5-0.1c-3.3-0.1-5-2.3-5-4.5c0-2.2,1.6-4.4,4.8-4.4h0.1c5.1,0,11.3,0.1,17.4,0.1
		c6,0,12-0.1,16.2-0.1c2.4,0,3.9-1,4.1-3.4c0-0.7,0.1-1.7,0.1-2.7H174.7z M218.7,467c0-10.6,0-11.6-6.3-11.7
		c-5-0.1-14.5-0.2-22.9-0.2c-20.4,0-20.4,0-20.4,7.9c0,1.2,0,2.6,0,4c2-1.8,5.2-2.7,9.6-2.8c2.9,0,6.1-0.1,9.4-0.1v-3.2
		c0-3.5,2.7-5.2,5.5-5.2c2.7,0,5.4,1.7,5.4,5.2v3.2c3.7,0,7.2,0,10.6,0.1c4.1,0.1,7.2,1.1,9.1,2.9V467z"/>
	<path class="st0" d="M356.7,462.8c0,7.1-0.1,13.7-0.1,17.6c0,2,0.2,6.6,0.4,10.9c0,0.1,0,0.4,0,0.5c0,7.6-4.3,14.6-16.2,14.6
		c-4.4,0-12.2-0.2-12.2-6.5c0-2.8,1.8-5.5,5.1-5.5c0.5,0,0.9,0,1.3,0.1c2.4,0.5,4.5,1,6.2,1c2.8,0,4.5-1.3,4.5-6.7v-26h-19.6
		c-3.4,0-5.1-2.4-5.1-4.9c0-2.4,1.7-4.9,5.1-4.9h19.5c0-3.8-0.1-7.3-0.1-10.4h-7.8c-3.4,0-5-2.4-5-4.9c0-0.1,0-0.1,0-0.2
		c-5.9,6.2-7.8,8.2-11.1,8.2c-1.2,0-2.4-0.4-3.4-1.1c1.5,3.4,2.2,7.1,2.2,12c0,9-5.1,17.3-14.5,17.3c-6.6,0-8.5-3.3-8.5-6.1
		c0-2.6,1.6-5,4.1-5c0.4,0,0.9,0,1.2,0.1c0.6,0.1,1.1,0.2,1.7,0.2c2.4,0,5.4-1.8,5.4-8.1c0-5.2-1.5-9.4-4.6-13.4
		c-2.1-2.8-2.9-5.4-2.9-7.8c0-2.6,0.9-4.9,1.8-7c2.9-6.5,4.6-11.7,4.6-12.4c0-1.3-0.7-2.1-4.9-2.1c-4.3,0-7.1,0.1-7.1,3.9
		c-0.1,10.4-0.2,24.6-0.2,39.8c0,36.7,0,40.3,0,45.5c0,3.5-2.8,5.2-5.7,5.2s-6-1.8-6-5.2c0-22,0.1-63.2,0.6-87.3
		c0.1-6.6,2.8-10.7,10.9-10.9c2.8,0,6.2,0,9.4,0c6.2,0,15.4,0.1,15.4,8.9c0,2.4-0.7,5.7-6.8,17.8c-0.9,1.6-1.2,2.9-1.2,4.1
		c0,1.6,0.6,3.1,1.7,4.5c0.4,0.6,0.9,1,1.2,1.6c0-1.5,0.7-3,2.4-4.5c8.7-7.1,15.7-16.1,22.2-26.2c2.4-4,6.1-6,9.8-6
		c3.7,0,7.4,1.8,10.6,5.5c7.6,8.8,16.6,17.3,25.9,24.5c1.6,1.2,2.2,2.7,2.2,4.1c0,3.3-3.3,6.6-7,6.6c-1.6,0-3.2-0.6-4.6-2
		c-8.1-7.6-17.7-18.1-24.2-25.9c-0.6-0.7-1.5-1.2-2.3-1.2c-0.6,0-1.3,0.4-1.8,1.2c-3.9,6.1-8.1,11.5-12.3,16.5h28.8
		c3.2,0,4.8,2.4,4.8,4.8c0,2.4-1.6,4.9-4.8,4.9h-8.9V453H381c3.2,0,4.8,2.4,4.8,4.9c0,2.4-1.6,4.9-4.8,4.9H356.7z M312.4,491.3
		c0-1.6,1-3.4,3.2-4.9c4.1-2.8,10.1-10,13.2-15.2c1.1-1.8,2.6-2.7,4.1-2.7c2.9,0,5.7,2.7,5.7,5.7c0,4.3-13.2,22.3-20.4,22.3
		C315.1,496.6,312.4,494.1,312.4,491.3z M374.8,492.5c-2.8-5.1-7.6-11-12-14.3c-1.3-1-2-2.2-2-3.4c0-2.7,2.8-5.4,5.9-5.4
		c4.5,0,19.3,14.2,19.3,20.4c0,3.5-2.9,6.2-6.1,6.2C378.1,496.1,376.1,495.1,374.8,492.5z"/>
</g>
</svg>
