<?xml version="1.0" encoding="utf-8"?>
<!-- Generator: Adobe Illustrator 21.1.0, SVG Export Plug-In . SVG Version: 6.00 Build 0)  -->
<svg version="1.1" id="_x32_" xmlns="http://www.w3.org/2000/svg" xmlns:xlink="http://www.w3.org/1999/xlink" x="0px" y="0px"
	 viewBox="0 0 512 512" style="enable-background:new 0 0 512 512;" xml:space="preserve">
<style type="text/css">
	.st0{fill:#FFFFFF;}
</style>
<g>
	<path class="st0" d="M373.5,79.6c-22.3,0-43.2,5.9-61.2,16.3c-0.3,0.2-0.5,0.3-0.8,0.5c-0.1-0.2-0.1-0.3-0.2-0.5
		C288.7,39.7,233.5,0,169.2,0C84.5,0,15.8,68.6,15.8,153.3c0,56,30.1,105,74.9,131.8v54.3c0,0,71.2-4.1,150.6-50.8
		c6-3.2,11.8-6.9,17.4-10.8c3.8-2.7,7.4-5.6,11-8.7c0.2-0.2,0.4-0.4,0.6-0.5c0.1,0.2,0.2,0.4,0.3,0.5c8.3,12.8,18.9,23.9,31.2,32.7
		c4.4,3.2,9.1,6.1,13.9,8.7c63.5,37.4,120.5,40.6,120.5,40.6v-43.5c35.9-21.4,59.9-60.6,59.9-105.4
		C496.2,134.5,441.3,79.6,373.5,79.6z M276.8,209.5c-5.6,10.7-12.8,20.6-21.3,29.2c-4.7,4.8-9.9,9.2-15.4,13.2
		c-4.4,3.2-9,6-13.7,8.6l-0.6,0.3l-0.6,0.3c-37,21.8-72,33.2-94.8,39c-2.6,0.7-5.2,1.3-7.6,1.8v-34.9l-15.6-9.3
		c-17.7-10.6-32.6-25.6-43-43.5c-10.7-18.4-16.3-39.4-16.3-60.8c0-32.4,12.6-62.9,35.5-85.8C106.3,44.6,136.8,32,169.2,32
		c32.4,0,62.9,12.6,85.8,35.5c14,14,24.1,30.7,29.9,49c3.7,11.7,5.6,24.1,5.6,36.8C290.5,173.2,285.9,192.1,276.8,209.5z
		 M407.5,176.4c5.4,0,9.8,4.4,9.8,9.8c0,5.4-4.4,9.8-9.8,9.8c-5.4,0-9.8-4.4-9.8-9.8C397.7,180.8,402.1,176.4,407.5,176.4z
		 M344.5,176.4c5.4,0,9.8,4.4,9.8,9.8c0,5.4-4.4,9.8-9.8,9.8c-5.4,0-9.8-4.4-9.8-9.8C334.7,180.8,339,176.4,344.5,176.4z
		 M408.4,235.2C399,242,387.4,246,375,246c-19.5,0-36.7-9.7-47-24.6h94C418.2,226.7,413.6,231.4,408.4,235.2z"/>
	<path class="st0" d="M128.6,153.5c7.2,0,13-5.8,13-13.1c0-7.2-5.8-13.1-13-13.1c-7.2,0-13.1,5.8-13.1,13.1
		C115.5,147.7,121.3,153.5,128.6,153.5z"/>
	<path class="st0" d="M212.5,153.5c7.2,0,13.1-5.8,13.1-13.1c0-7.2-5.8-13.1-13.1-13.1c-7.2,0-13.1,5.8-13.1,13.1
		C199.4,147.7,205.3,153.5,212.5,153.5z"/>
	<path class="st0" d="M169.2,220c16.6,0,31.9-5.3,44.4-14.3c7-5.1,13.2-11.3,18.1-18.4H106.6C120.3,207.1,143.2,220,169.2,220z"/>
</g>
<g>
	<path class="st0" d="M132.9,450c1.7-2.6,2.1-3-0.5-2.2c-4.1,1.5-10.9,4.3-12.9,5.5c-2.8,1.7-7.9,3-10.6,1.3
		c-5.7-3.5-4.3-9.8,1.3-11.5c2.3-0.7,11.5-2.3,14-4.5c10-8.8,21-27.7,28.2-38.9c5.9-9,17-0.2,11.5,6.8c-8.2,10.5-17.4,22.8-24.8,29
		c-1.3,1.2,0.4,0.7,0.9,0.5c0.7-0.4,2.2-0.9,4-1.3c7.9-2.2,18.7-5,27.1-5c6.3,0,7.9,5.4,6.2,8.9c-1.1,2.3-4.1,4.1-10.2,3.4
		c-4-0.5-11.2,0.6-14.2,1.2c-6.2,1.5-7.4,3.3-10.7,8.3c-8.5,12.9-1,29.6,17.2,28.4c11.7-0.7,11.7,15.2-1.7,13.9
		C129.8,491.1,122.5,465.3,132.9,450z M122.9,418.3c-1.3-2.9-4.1-7-7.6-9c-6-3.7,1.1-12.3,7.8-7.9c4.6,3,8.4,6.1,10.7,11.5
		c1.5,3.4-0.9,6.7-3.4,7.9C127.9,422,124.5,421.6,122.9,418.3z"/>
	<path class="st0" d="M250.1,424.2c-2,15.5-12.9,38.6-24.6,49.4c-9.4,8.7-19.6,3.9-25-6.6c-7.7-15.1,0.5-37.8,16.8-49.2
		c15-10.4,37.3-12.1,52.7-2.8c18.9,11.3,22,33.8,11.3,51.2c-5.7,9.4-17.7,17-29.8,20.1c-10.7,2.8-14.5-9.5-4-12
		c9.3-2.1,18.7-7.3,22.7-13.7c8.7-13.7,5.4-29.6-6.7-37.3c-4.8-3-9.9-4.5-15.1-4.9C249.8,419.8,250.5,421.7,250.1,424.2z
		 M223.1,426.5c-11.3,8.8-17.4,25-12.3,34.4c1.8,3.5,5,5.4,8.1,2.7c9.2-8.1,17.7-27.4,18.9-40.6c0.1-1.5,0.5-2.8,1.1-3.8
		C233.2,420.4,227.7,423,223.1,426.5z"/>
	<path class="st0" d="M319.4,433.7c-8.5,10.6-11.1,12.1-13.9,12.1c-3,0-5.5-2.4-5.5-5.2c0-1.5,0.6-3,2.1-4.4
		c11.6-11.1,21.7-26.5,28.2-43.1c1-2.6,3-3.5,5-3.5c3.3,0,6.7,2.6,6.7,6c0,2.9-6.8,14.6-11.1,21.5l-1.3,73.3c-0.1,3.7-3,5.5-6,5.5
		c-2.8,0-5.6-1.7-5.6-5.2c0-0.1,0-0.1,0-0.2L319.4,433.7z M369.5,435l-12,6.6c0,13.4,0,26.5,0.1,32.5c0.2,7.6,7.3,7.7,19.2,7.7
		c15.4,0,23.5-0.4,23.5-12.4c0-3.7,2.7-5.4,5.4-5.4c2.3,0,6.5,1.1,6.5,6.2c0,21.5-17.1,22.1-33.9,22.1c-20,0-31.8-1.8-32-16.1
		c-0.1-6.8-0.1-17.2-0.1-28.2l-6.5,3.5c-0.9,0.5-1.7,0.6-2.4,0.6c-2.8,0-4.8-2.8-4.8-5.6c0-1.8,0.9-3.7,2.8-4.8l10.9-6
		c0-11.7,0.1-22.9,0.1-30.3c0-3.5,2.9-5.4,5.7-5.4c2.8,0,5.6,1.7,5.6,5.1v0.1c-0.1,5.5-0.1,14.4-0.1,24.2l12-6.5v-28.4
		c0-3.3,2.8-5,5.6-5c2.8,0,5.6,1.7,5.6,5v22.2c10.5-5.9,11.8-6.6,15.4-6.6c9.3,0,9.5,9.3,9.5,16.8c0,16.6-0.7,36.7-16.2,36.7
		c-7.8,0-8.2-4.9-8.2-6.1c0-2.7,1.7-5.2,4.6-5.2c0.6,0,1.1,0.1,1.7,0.2c0.4,0.1,0.7,0.1,1.1,0.1c1.2,0,5.7-0.6,5.7-23.4
		c0-5.9-0.6-7-2-7c-0.4,0-0.7,0.1-1.1,0.4c-2.1,1.2-5.9,3.4-10.6,6v38.6c0,3-2.8,4.6-5.6,4.6c-2.8,0-5.6-1.6-5.6-4.6V435z"/>
</g>
</svg>
