<?xml version="1.0" encoding="utf-8"?>
<!-- Generator: Adobe Illustrator 21.1.0, SVG Export Plug-In . SVG Version: 6.00 Build 0)  -->
<svg version="1.1" id="_x32_" xmlns="http://www.w3.org/2000/svg" xmlns:xlink="http://www.w3.org/1999/xlink" x="0px" y="0px"
	 viewBox="0 0 512 512" style="enable-background:new 0 0 512 512;" xml:space="preserve">
<style type="text/css">
	.st0{fill:#FFFFFF;}
</style>
<g>
	<path class="st0" d="M163.4,312.1c4.5-0.5,7.7-4.4,7.3-8.9l-11.5-86c-0.4-4.5-4.4-7.7-8.9-7.3c-4.5,0.5-7.7,4.4-7.3,8.9l11.5,86
		C154.9,309.3,158.9,312.5,163.4,312.1z"/>
	<path class="st0" d="M209.7,312.1c4.5-0.2,7.9-4,7.7-8.5l-5.7-86c-0.2-4.5-4-7.9-8.5-7.7c-4.5,0.2-7.9,4-7.7,8.5l5.7,86
		C201.4,308.9,205.2,312.3,209.7,312.1z"/>
	<path class="st0" d="M357.5,304.8l11.5-86c0.4-4.5-2.8-8.5-7.3-8.9c-4.5-0.5-8.5,2.8-8.9,7.3l-11.5,86c-0.5,4.5,2.8,8.5,7.3,8.9
		C353.1,312.5,357.1,309.3,357.5,304.8z"/>
	<path class="st0" d="M310.9,304.4l5.7-86c0.2-4.5-3.2-8.3-7.7-8.5c-4.5-0.2-8.3,3.2-8.5,7.7l-5.7,86c-0.2,4.5,3.2,8.3,7.7,8.5
		C306.8,312.3,310.6,308.9,310.9,304.4z"/>
	<path class="st0" d="M256.3,313c4.5,0,8.1-3.6,8.1-8.1l0-86.9c0-4.5-3.6-8.1-8.1-8.1c-4.5,0-8.1,3.6-8.1,8.1l0,86.9
		C248.2,309.3,251.8,313,256.3,313z"/>
	<polygon class="st0" points="387.6,333.5 124.3,333.5 103.1,178.2 74.4,178.2 99,362 413,362 437.6,178.2 408.9,178.2 	"/>
	<path class="st0" d="M372.6,111.8L320,9.9c-4.6-9-15.7-12.5-24.6-7.9c-9,4.6-12.5,15.7-7.9,24.6l43.9,85.1H180.5l43.9-85.1
		c4.6-9,1.1-20-7.9-24.6c-9-4.6-20-1.1-24.6,7.9l-52.6,101.9h-84V166h401.2v-54.2H372.6z"/>
</g>
<g>
	<path class="st0" d="M143.4,498.7c3.8,0.2,5.5,2.8,5.5,5.6c0,3.3-2.4,6.8-6.8,6.8c-5,0-20.9-4.4-32.7-11.2c-2-1.1-2.8-2.8-2.8-4.5
		c0-2.2,1.5-4.5,3.5-5.5c-25.7,0-25.7,0-25.7,0c2.7,0.7,4.6,3.4,4.6,6.1c0,1.7-0.7,3.3-2.6,4.4c-11.6,7.1-27.9,11.3-33.1,11.3
		c-4.3,0-6.5-3-6.5-6c0-2.8,1.8-5.6,5.9-5.9c8.4-0.5,18.9-3.7,27.4-9.3c0.6-0.4,1.2-0.7,1.8-0.9c-2.3,0-4.5-0.1-6.7-0.1
		c-8.7-0.2-12.8-4.5-13.1-10.2c-0.2-4.5-0.4-10.1-0.4-15.6c0-5.6,0.1-11.1,0.4-15.2c0.2-4.8,3.4-9.9,12.8-10
		c6.3-0.1,13.4-0.1,20.6-0.1c8.9,0,18.1,0,26.7,0.2c7.2,0.1,11.8,4.6,12.1,9.1c0.2,4.3,0.4,9,0.4,13.9c0,6.1-0.1,12.3-0.4,17.6
		c-0.1,5.5-4.9,10.4-12.7,10.5c-2.3,0-4.8,0.1-7.2,0.1C128.7,497,137.4,498.3,143.4,498.7z M98.1,433.3c-12,0-23.8,0-33.4-0.1
		c-12.4-0.1-13.3-4.4-13.3-12.7c0-7.9,0.2-13.9,12.8-14c9.5-0.1,21.6-0.1,33.9-0.1c12.2,0,24.6,0,34.6,0.1
		c12,0.2,12.4,6.1,12.4,12.2c0,8.4,0,14.4-12.4,14.5C122.4,433.3,110.2,433.3,98.1,433.3z M79.5,415l-11.8,0.1c-4,0-4.9,1.2-4.9,5.1
		c0,3,0.5,4.6,5,4.6h11.7V415z M123.6,460.8H72.8v6.5h50.9V460.8z M123.4,451.4c-0.1-2.8-1.5-4.4-5.5-4.5c-7-0.1-15.9-0.2-24.3-0.2
		c-5.2,0-10.4,0-14.8,0.1c-3.8,0.1-5.7,2.4-5.9,4.6v2h50.4V451.4z M73,474.7v2c0.1,3.4,2.4,4.5,6,4.6c6.7,0.2,14.6,0.4,22.6,0.4
		c5.7,0,11.5-0.1,16.5-0.2c3.2-0.1,5.1-1.5,5.4-4.6c0-0.6,0.1-1.3,0.1-2.1H73z M105.4,415H90v9.9h15.5V415z M129.2,424.9
		c3.9,0,4.5-1.8,4.5-4.5c0-5-1.3-5.2-4.8-5.2c-4,0-8.5-0.1-13.2-0.1v9.9H129.2z"/>
	<path class="st0" d="M186.7,488.9c-8.8-9.5-12.8-23.7-13.8-39c-0.5-7-0.7-9.1-0.6-13.5c0.2-7.7,12.1-9.3,12.4-0.1
		c0.2,4.8-0.2,5,0,10.6c0.5,12.8,2.8,24.9,9.6,31.5c3.2,3,4.8,3.4,7.4-0.2c1.5-2.1,3.2-5.2,4-7.2c3.3-7.1,13.4-2,11.1,4.4
		c-1.2,3.4-3.4,7.2-4.8,9.4C204.4,497.4,193.5,496.3,186.7,488.9z M252.7,467.5c-2-9.8-7-19.2-13.5-23.7c-5.9-4,0.7-13.1,8.1-7.6
		c8.7,6.5,17.1,17.9,18.3,28.3C266.5,473.5,254.4,475.9,252.7,467.5z"/>
	<path class="st0" d="M315.3,484.3c0.7,17.4,19.8,16.7,26.1,3.2c4.3-9.1,0.9-17.2-6-24.6c-6.3-7,4.1-13.4,9.5-7.2
		c9.5,11,12.9,22.6,8.3,34.9c-8.8,23.2-47.7,27.2-48.7-5.4c-0.1-3.4-0.1-7.1,0.1-10.9c-4.4-0.4-7.8-1.1-9.4-1.5
		c-9.9-2.7-6.1-14.3,0.9-12c2.8,0.9,6,1.6,9.4,1.8c0.5-5.4,1.1-10.7,1.7-16.2c-4.6-0.6-8.5-1.5-10.1-2.1c-9.3-3.2-3.9-14.4,2.6-11.7
		c2.7,1.1,5.7,2,8.8,2.3c0.1-1.5,0.4-3,0.5-4.5c0.7-7.7,1-12.3,1.3-18.1c0.6-8.5,12.2-6.6,12.2,0.6c0,5.7-1.2,10.4-2.1,17.6
		c-0.1,1.5-0.4,2.9-0.5,4.4c1.1-0.1,2.1-0.4,3-0.6c7.9-1.8,10,9,2.8,11.1c-2.4,0.7-4.9,1-7.4,1.2c-0.7,5.5-1.3,10.7-1.8,15.9
		c2.1-0.2,4-0.6,5.9-1.1c8.1-2.2,11.1,8.5,3.9,11c-3.3,1.1-7.1,1.7-10.9,2C315.2,478,315.2,481.3,315.3,484.3z"/>
	<path class="st0" d="M428.9,439.2c-2,15.5-12.9,38.6-24.6,49.4c-9.4,8.7-19.6,3.9-25-6.6c-7.7-15.1,0.5-37.8,16.8-49.2
		c15-10.4,37.3-12.1,52.7-2.8c18.9,11.3,22,33.8,11.3,51.2c-5.7,9.4-17.7,17-29.8,20.1c-10.7,2.8-14.5-9.5-4-12
		c9.3-2.1,18.7-7.3,22.7-13.7c8.7-13.7,5.4-29.6-6.7-37.3c-4.8-3-9.9-4.5-15.1-4.9C428.5,434.8,429.2,436.7,428.9,439.2z
		 M401.8,441.5c-11.3,8.8-17.4,25-12.3,34.4c1.8,3.5,5,5.4,8.1,2.7c9.1-8.1,17.7-27.4,18.9-40.6c0.1-1.5,0.5-2.8,1.1-3.8
		C411.9,435.4,406.4,438,401.8,441.5z"/>
</g>
</svg>
