<?xml version="1.0" encoding="utf-8"?>
<!-- Generator: Adobe Illustrator 21.1.0, SVG Export Plug-In . SVG Version: 6.00 Build 0)  -->
<svg version="1.1" id="_x32_" xmlns="http://www.w3.org/2000/svg" xmlns:xlink="http://www.w3.org/1999/xlink" x="0px" y="0px"
	 viewBox="0 0 512 512" style="enable-background:new 0 0 512 512;" xml:space="preserve">
<style type="text/css">
	.st0{fill:#FFFFFF;}
</style>
<g>
	<path class="st0" d="M411.4,328.2l-77.8-152.6c-6.8-13.3-8.1-28.8-3.5-43l12.1-37.9c1.7-5.4,6.7-9.2,12.5-9.2l23.8-0.3
		c5.8-0.1,10.9-3.9,12.5-9.5L403,35c2.1-6.9-1.8-14.2-8.7-16.4l-50-15.9c-16.7-5.3-35-2.3-49.1,8.1L256,39.4l-39.3-28.8
		c-14.1-10.3-32.3-13.3-48.9-8.1l-51.3,16.1c-6.9,2.2-10.8,9.5-8.7,16.4l12,40.6c1.7,5.6,6.7,9.4,12.5,9.5l25,0.3
		c5.7,0.1,10.7,3.8,12.5,9.2l12.1,37.9c4.5,14.2,3.3,29.7-3.5,43l-77.8,152.6c-2.7,5.3-2.4,11.6,0.7,16.6c3.1,5.1,8.6,8.1,14.5,8.1
		h280.3c5.9,0,11.4-3.1,14.5-8.1C413.8,339.8,414,333.5,411.4,328.2z"/>
</g>
<g>
	<path class="st0" d="M138.5,445c-4.8-3.9-9.9-6.1-14.3-7.7c-2.2-0.7-3-2.3-3-4c0-2.8,2.4-5.9,5.9-5.9c2,0,12.2,2.7,17.9,7.1
		c1.8,1.3,2.6,3.3,2.6,5.1c0,3.4-2.6,6.7-5.6,6.7C140.8,446.3,139.6,446,138.5,445z M130.6,500.6c-3.4,0-6.3-2.8-6.3-6
		c0-1.3,0.5-2.7,1.6-3.9c7.3-8.3,12.8-18.2,16.8-28.5c0.9-2.3,2.9-3.3,4.9-3.3c2.9,0,6,2.1,6,5.6c0,3.3-7.8,21.6-17.2,33.1
		C134.5,499.8,132.5,500.6,130.6,500.6z M144.6,417.4c-3.8-4.6-9.6-7.8-12.6-9.6c-1.6-1-2.3-2.4-2.3-3.8c0-2.7,2.8-5.5,6.1-5.5
		c4.3,0,14.9,7.2,17.4,10.2c1.1,1.3,1.6,2.7,1.6,4.1c0,3.4-3,6.6-6.2,6.6C147.3,419.5,145.8,418.9,144.6,417.4z M146.9,497.3
		c0-2.2,1.2-4.4,4-5.5c17.4-6.8,21.3-18.3,22.4-33.1c0.2-3.8,2.9-5.4,5.7-5.4c3,0,6.3,2.1,6.3,5.5c0,0.1,0,0.4,0,0.5
		c-3.2,36.6-29.9,43.7-32.6,43.7C149.1,503.1,146.9,500.2,146.9,497.3z M219,479.8c0-3.4,2.6-4.9,5.4-4.9c2,0,6.2,0.9,6.2,5.9
		c0,17-5.9,20.6-21.7,20.6c-12.9,0-16.3-4.5-16.3-14c0-3.8,0.2-24.9,0.4-35.7h-2.2l-32.7,0.4h-0.1c-3.5,0-5.2-2.6-5.2-5.1
		c0-2.6,1.8-5.1,5.4-5.1l26.6,0.1v-15.4l-13.8,0.1c-5.5,10-8.2,12.7-11.6,12.7c-2.9,0-5.7-2.2-5.7-5c0-1.1,0.5-2.4,1.5-3.7
		c6.6-8.1,9.8-16.1,13.1-25.1c0.9-2.4,2.9-3.5,5-3.5c2.9,0,6,2.1,6,5.4c0,0.6-0.2,2.4-3.3,9.1h8.9v-16c0-3.4,2.8-5.1,5.6-5.1
		c2.9,0,5.9,1.7,5.9,5.1v16l21.3-0.1c3.5,0,5.2,2.6,5.2,5.1s-1.7,5.1-5.2,5.1l-21.3-0.1v15.4l28.3-0.1c3.3,0,5,2.6,5,5.1
		c0,2.6-1.7,5.1-4.9,5.1h-0.1l-20-0.2c-0.1,9.6-0.5,26.4-0.5,32.6c0,4.6,0.7,6.3,5.1,6.3c8.8,0,10-0.9,10-9.5c0-0.4,0-0.9,0-1.2
		V479.8z"/>
	<path class="st0" d="M295,445.3c-4.8-3.9-9.3-5.7-13.7-7.3c-2.2-0.7-3.1-2.4-3.1-4c0-2.8,2.4-5.9,5.9-5.9c3.7,0,13.4,3.8,17.3,6.7
		c1.8,1.3,2.6,3.3,2.6,5.1c0,3.4-2.6,6.7-5.6,6.7C297.4,446.7,296.1,446.3,295,445.3z M287.4,500.6c-3.3,0-6.5-2.7-6.5-5.9
		c0-1.1,0.4-2.2,1.1-3.3c6.1-8.9,9.2-17.9,13.4-30.5c0.9-2.4,2.9-3.5,5-3.5c2.9,0,5.9,2.1,5.9,5.6c0,1.6-4,17.7-12.9,33.7
		C291.7,499.5,289.5,500.6,287.4,500.6z M299.8,417.5c-3.8-4.6-8.7-7.2-11.6-9c-1.6-1-2.3-2.4-2.3-3.8c0-2.7,2.8-5.5,6.1-5.5
		c1.7,0,18.1,6.5,18.1,13.8c0,3.4-3,6.6-6.2,6.6C302.5,419.6,301,419,299.8,417.5z M382.3,491.5c2.7,0,4,2.2,4,4.4
		c0,2.3-1.3,4.5-4,4.5c-9.5,0-22.4,0.1-34.4,0.1c-6,0-11.7,0-16.6-0.1c-7.4-0.1-12.7-3.2-12.8-11.1c0-4.1,0.1-12.3,0.4-19.4
		c-1.2,1.3-2.4,2.6-3.7,3.7c-1.3,1.3-2.8,1.8-4.3,1.8c-2.8,0-5.2-2.4-5.2-5c0-1.3,0.5-2.7,2-3.8c6.8-5.5,16-17.7,20-27.2
		c0.2-0.5,0.5-1,0.7-1.3c-2.6,0-5.2,0-7.6,0c-3.8,0-7.9-0.1-7.9-4.5c0-2.1,1.5-4,4.3-4c0.1,0,0.2,0,0.4,0c1.8,0.1,4.1,0.1,6.6,0.1
		c10.5,0,12.7,0,12.8-3.3c0-0.7,0.1-1.8,0.1-3.2h-16c-3.2,0-4.8-2.1-4.8-4.3c0-2.1,1.6-4.1,4.8-4.1h16c0-1.2-0.1-2.2-0.1-2.9
		c-0.1-2.3-1.6-3.2-3.8-3.2c-14.9,0-14.9,0-14.9,0c-0.1,0-0.1,0-0.2,0c-3,0-4.6-2.2-4.6-4.4c0-2.2,1.6-4.4,5-4.4
		c4.9,0,12,0.1,17.8,0.1c11.5,0,11.5,7.1,11.5,19c0,13.4-0.4,18.1-11,18.8c0.7,0.7,1.2,1.8,1.2,2.9c0,1.3-0.6,2.9-3.4,7.6h12.8
		c1.5-2.9,3-6.7,4-9.4c0.2-0.5,0.6-0.9,1-1.2c-2-0.7-3.1-2.4-3.1-4.1c0-2.1,1.6-4,4.5-4h0.1c2.2,0,5.1,0.1,7.9,0.1
		c10.5,0,11.2-0.2,11.3-3.3c0-0.7,0.1-1.8,0.1-3.2h-17.1c-3.2,0-4.8-2.1-4.8-4.3c0-2.1,1.6-4.1,4.8-4.1h17.1c0-1.2-0.1-2.2-0.1-2.9
		c-0.1-2.3-1.5-3-3.7-3.2c0,0,0,0-15,0c-3.3,0-4.9-2.2-4.9-4.5c0-2.1,1.6-4.3,4.9-4.3h0.1c5,0.1,12.8,0.1,17.8,0.1
		c11.5,0,11.5,7.1,11.5,19c0,12.7-0.1,18.3-11.5,18.9c-2.8,0.1-7.4,0.1-11.7,0.1c0.9,0.6,1.3,1.5,1.3,2.4c0,0.9-0.7,2.3-3.5,7.7
		c8.1,0,15.7,0.1,21.7,0.2c2.6,0,3.9,2.2,3.9,4.4s-1.3,4.3-4,4.3h-0.1c-6.2-0.1-14.9-0.1-23.4-0.1v6.3h18.4c2.3,0,3.4,1.8,3.4,3.7
		c0,2-1.1,3.8-3.4,3.8h-18.4v6.5h18.4c2.3,0,3.5,2,3.5,3.8s-1.2,3.7-3.5,3.7h-18.4v7.1c9.1,0,18.4-0.1,25.6-0.2H382.3z M345.8,470.7
		h-16.7v6.5h16.7V470.7z M345.8,484.6h-16.7v3c0.2,4,1.6,4,16.7,4V484.6z M345.8,456.9l-12.3,0.1c-2.1,0-3.8,1.1-4,4.1
		c0,0.6-0.1,1.2-0.1,2.1h16.5V456.9z"/>
</g>
</svg>
